<svg width="23" height="17" viewBox="0 0 23 17" fill="none" xmlns="http://www.w3.org/2000/svg">
<path d="M1.04792 12.5479L4.41917 15.9192C4.79375 16.3059 5.44625 16.04 5.44625 15.4963V13.3334H12.7083C13.3729 13.3334 13.9167 12.7896 13.9167 12.125C13.9167 11.4604 13.3729 10.9167 12.7083 10.9167H5.44625L5.44625 8.75377C5.44625 8.21002 4.79375 7.94419 4.41917 8.33086L1.04792 11.7021C0.818337 11.9317 0.818337 12.3184 1.04792 12.5479ZM17.5538 3.66669L10.2917 3.66669C9.62709 3.66669 9.08334 4.21044 9.08334 4.87502C9.08334 5.53961 9.62709 6.08336 10.2917 6.08336L17.5538 6.08336V8.24627C17.5538 8.79002 18.2063 9.05586 18.5808 8.66919L21.94 5.29794C22.1696 5.05628 22.1696 4.68169 21.94 4.44003L18.5808 1.06878C18.2063 0.682109 17.5538 0.960026 17.5538 1.49169V3.66669Z" fill="#3A7BF8"/>
</svg>
