<svg width="25" height="25" viewBox="0 0 25 25" fill="none" xmlns="http://www.w3.org/2000/svg">
<path d="M23.9551 14.5542L14.3126 8.87508V2.22925C14.3126 1.22633 13.503 0.416748 12.5001 0.416748C11.4972 0.416748 10.6876 1.22633 10.6876 2.22925V8.87508L1.04508 14.5542C0.658415 14.7717 0.416748 15.1947 0.416748 15.6417C0.416748 16.4876 1.22633 17.0917 2.03591 16.8622L10.6876 14.3247V20.9584L7.95675 22.5897C7.7755 22.6984 7.66675 22.9038 7.66675 23.1092V23.7134V23.8101C7.66675 24.2088 8.04133 24.4988 8.41592 24.4022L11.9442 23.5201L12.5001 23.3751L12.9592 23.4838L13.4667 23.6167L15.7626 24.1967L16.5722 24.4022C16.9588 24.4988 17.3213 24.2088 17.3213 23.8101V23.363V23.1092C17.3213 22.8918 17.2126 22.6984 17.0313 22.5897L14.3126 20.9584V14.3126L22.9642 16.8501C23.7738 17.0917 24.5834 16.4876 24.5834 15.6417C24.5834 15.1947 24.3417 14.7717 23.9551 14.5542Z" fill="#3A7BF8"/>
</svg>
